<svg id="Capa_1" enable-background="new 0 0 511.985 511.985" height="512" viewBox="0 0 511.985 511.985" width="512" xmlns="http://www.w3.org/2000/svg"><g><g><path d="m379.056 504.485h-347.088c19.565-24.172 49.491-39.619 83.017-39.619h181.053c33.527.001 63.453 15.447 83.018 39.619z" fill="#f9f6f9"/><path d="m202.182 464.867c-33.526 0-63.452 15.446-83.017 39.619h-87.197c19.565-24.172 49.491-39.619 83.017-39.619z" fill="#dddaec"/><path d="m296.036 474.84h-181.052c-58.984 0-106.799-47.815-106.799-106.799v-87.324c0-58.983 47.815-106.799 106.799-106.799h181.052c58.983 0 106.799 47.815 106.799 106.799v87.324c0 58.984-47.816 106.799-106.799 106.799z" fill="#f9f6f9"/><path d="m202.182 474.834h-87.196c-58.985 0-106.801-47.816-106.801-106.791v-87.326c0-58.985 47.816-106.801 106.801-106.801h87.196c-58.985 0-106.801 47.816-106.801 106.801v87.326c0 58.974 47.816 106.791 106.801 106.791z" fill="#dddaec"/><path d="m276.196 386.932h-141.372c-37.026 0-67.041-30.015-67.041-67.041v-35.806c0-37.026 30.015-67.041 67.041-67.041h141.372c37.026 0 67.041 30.015 67.041 67.041v35.806c0 37.026-30.016 67.041-67.041 67.041z" fill="#9dc6fb"/><path d="m188.744 386.937h-53.919c-37.026 0-67.042-30.016-67.042-67.042v-35.81c0-37.016 30.016-67.032 67.042-67.032h53.919c-37.026 0-67.042 30.016-67.042 67.032v35.81c0 37.026 30.016 67.042 67.042 67.042z" fill="#80b4fb"/><g fill="#ffe07d"><circle cx="141.471" cy="295.576" r="28.803"/><circle cx="269.549" cy="295.576" r="28.803"/></g><g><path d="m270.334 7.497h168.641c35.8 0 64.822 29.022 64.822 64.822v54.256c0 35.8-29.022 64.822-64.822 64.822h-84.743l-40.566 46.354c-12.032 13.749-34.679 5.239-34.679-13.032v-33.322h-8.653c-35.8 0-64.822-29.022-64.822-64.822v-54.256c0-35.8 29.022-64.822 64.822-64.822z" fill="#ffe07d"/><path d="m312.894 238.591c-12.208 12.54-33.905 4.012-33.905-13.869v-33.326h-8.655c-35.797 0-64.821-29.024-64.821-64.821v-54.26c0-35.797 29.024-64.821 64.821-64.821h28.3c-35.805 0-64.821 29.024-64.821 64.821v54.26c0 35.797 29.016 64.821 64.821 64.821h8.655v33.326c-.001 5.699 2.206 10.453 5.605 13.869z" fill="#ffd064"/></g><g fill="#ffd064"><path d="m150.481 322.93c-2.832.937-5.863 1.446-9.015 1.446-15.905 0-28.799-12.894-28.799-28.8 0-15.905 12.894-28.809 28.799-28.809 3.151 0 6.183.508 9.015 1.446-11.498 3.779-19.795 14.609-19.795 27.363.001 12.754 8.297 23.574 19.795 27.354z"/><path d="m278.562 322.93c-2.832.937-5.863 1.446-9.015 1.446-15.915 0-28.809-12.894-28.809-28.8 0-15.905 12.894-28.809 28.809-28.809 3.151 0 6.183.508 9.015 1.446-11.498 3.779-19.794 14.609-19.794 27.363s8.296 23.584 19.794 27.354z"/></g><circle cx="114.986" cy="87.748" fill="#e27a66" r="31.508"/><path d="m125.839 117.335c-3.38 1.247-7.04 1.925-10.85 1.925-17.401 0-31.512-14.11-31.512-31.512s14.11-31.502 31.512-31.502c3.809 0 7.469.678 10.85 1.915-12.046 4.428-20.652 15.995-20.652 29.587s8.606 25.17 20.652 29.587z" fill="#dd636e"/></g><g><path d="m494.472 25.956c-2.659-3.177-7.389-3.596-10.565-.937s-3.596 7.389-.937 10.565c8.596 10.269 13.33 23.315 13.33 36.736v54.26c0 31.606-25.718 57.32-57.329 57.32h-84.74c-2.162 0-4.22.933-5.644 2.56l-40.571 46.351c-4.131 4.72-9.713 4.857-13.562 3.411-3.85-1.446-7.964-5.228-7.964-11.502v-33.32c0-4.142-3.357-7.5-7.5-7.5h-8.66c-31.606 0-57.32-25.714-57.32-57.32v-54.26c0-31.606 25.714-57.32 57.32-57.32h168.641c7.913 0 15.581 1.583 22.79 4.703 3.802 1.646 8.216-.103 9.862-3.903 1.646-3.801-.103-8.217-3.903-9.862-9.101-3.94-18.774-5.938-28.749-5.938h-168.64c-39.878 0-72.32 32.443-72.32 72.32v54.26c0 14.714 4.428 28.408 12.005 39.842h-87.53v-40.396c17.932-3.508 31.508-19.333 31.508-38.277 0-21.509-17.499-39.008-39.008-39.008s-39.008 17.498-39.008 39.007c0 18.944 13.576 34.77 31.508 38.277v40.649c-59.542 3.876-106.801 53.538-106.801 114.038v87.325c0 44.336 25.375 82.857 62.363 101.804-14.178 7.231-26.741 17.366-36.916 29.921-2.608 3.218-2.114 7.941 1.104 10.549 1.39 1.126 3.06 1.673 4.718 1.673 2.185 0 4.35-.949 5.831-2.778 11.835-14.602 27.368-25.445 45.022-31.488 10.212 3.001 21.009 4.619 32.179 4.619h181.053c11.17 0 21.967-1.618 32.179-4.619 17.654 6.043 33.188 16.886 45.022 31.488 1.481 1.829 3.646 2.778 5.831 2.778 1.658 0 3.328-.548 4.718-1.673 3.218-2.608 3.712-7.331 1.104-10.549-10.175-12.556-22.738-22.69-36.916-29.921 36.989-18.947 62.363-57.468 62.363-101.804v-87.325c0-31.204-12.598-60.511-34.477-81.812h63.109c39.883 0 72.329-32.443 72.329-72.32v-54.26c-.001-16.935-5.977-33.401-16.829-46.364zm-403.494 61.792c0-13.238 10.77-24.008 24.008-24.008s24.008 10.77 24.008 24.008-10.77 24.008-24.008 24.008-24.008-10.77-24.008-24.008zm304.361 192.964v87.325c0 54.754-44.546 99.301-99.301 99.301h-181.052c-54.755 0-99.301-44.546-99.301-99.301v-87.325c0-54.749 44.546-99.291 99.301-99.291h108.28c12.66 10.88 29.101 17.479 47.065 17.479h1.16v10.64h-136.67c-41.102 0-74.54 33.438-74.54 74.54v35.81c0 6.634.872 13.21 2.592 19.545.907 3.339 3.932 5.537 7.233 5.537.65 0 1.312-.085 1.97-.264 3.998-1.085 6.358-5.206 5.273-9.203-1.373-5.054-2.068-10.308-2.068-15.615v-35.81c0-32.831 26.71-59.54 59.54-59.54h136.67v.18c0 11.48 6.943 21.507 17.688 25.544 3.184 1.196 6.461 1.777 9.696 1.777 7.604 0 14.962-3.214 20.268-9.177 10.617 11.033 16.597 25.695 16.597 41.216v35.81c0 32.831-26.714 59.54-59.55 59.54h-141.37c-17.467 0-33.994-7.631-45.344-20.937-2.688-3.15-7.421-3.527-10.573-.839-3.151 2.688-3.527 7.422-.839 10.573 14.204 16.652 34.891 26.203 56.756 26.203h141.37c41.106 0 74.55-33.438 74.55-74.54v-35.81c0-19.873-7.82-38.626-21.679-52.538l26.517-30.295c25.009 18.727 39.761 47.988 39.761 79.465z"/><path d="m141.47 331.879c20.018 0 36.304-16.286 36.304-36.303 0-20.018-16.286-36.304-36.304-36.304s-36.303 16.286-36.303 36.304 16.286 36.303 36.303 36.303zm0-57.607c11.747 0 21.304 9.557 21.304 21.304s-9.557 21.303-21.304 21.303c-11.746 0-21.303-9.557-21.303-21.303 0-11.747 9.557-21.304 21.303-21.304z"/><path d="m269.549 331.879c20.018 0 36.303-16.286 36.303-36.303 0-20.018-16.285-36.304-36.303-36.304s-36.304 16.286-36.304 36.304c.001 20.018 16.287 36.303 36.304 36.303zm0-57.607c11.746 0 21.303 9.557 21.303 21.304s-9.557 21.303-21.303 21.303c-11.747 0-21.304-9.557-21.304-21.303.001-11.747 9.557-21.304 21.304-21.304z"/><path d="m233.343 341.509h-55.667c-4.143 0-7.5 3.358-7.5 7.5s3.357 7.5 7.5 7.5h55.667c4.143 0 7.5-3.358 7.5-7.5s-3.357-7.5-7.5-7.5z"/><path d="m453.908 80.652c0-4.142-3.357-7.5-7.5-7.5h-184.526c-4.143 0-7.5 3.358-7.5 7.5s3.357 7.5 7.5 7.5h184.525c4.143 0 7.501-3.358 7.501-7.5z"/><path d="m261.882 112.87c-4.143 0-7.5 3.358-7.5 7.5s3.357 7.5 7.5 7.5h125.771c4.143 0 7.5-3.358 7.5-7.5s-3.357-7.5-7.5-7.5z"/></g></g></svg>